<svg width="354" height="193" viewBox="0 0 354 193" fill="none" xmlns="http://www.w3.org/2000/svg">
<path d="M324.269 37.029C294.111 13.5219 250.755 17.5214 223.721 44.5643L206.314 61.9715L237.216 92.8739L255.131 74.9591C266.359 63.7306 284.344 61.7177 297.043 71.2396C305.083 77.2209 309.821 86.6515 309.821 96.6722C309.821 106.693 305.083 116.123 297.043 122.105C284.344 131.627 266.359 129.605 255.131 118.385L234.459 97.7136L233.426 96.6722L202.515 65.7698L201.474 64.7283L165.032 28.2773C146.899 10.1227 122.278 -0.0541105 96.6192 0.000216397H24.5836C11.0042 0.0197432 0.00481365 11.0309 0 24.6103V99.8753L0.0700139 99.7878C0.891274 127.268 13.4047 153.091 34.4644 170.764C73.0945 203.356 130.733 199.391 166.502 163.649L202.55 127.601L223.756 148.806C250.79 175.84 294.137 179.849 324.296 156.35C342.751 142.057 353.551 120.026 353.546 96.6832C353.54 73.3403 342.731 51.3143 324.269 37.029ZM134.129 134.173C119.019 149.391 96.2128 153.971 76.3989 145.768C56.585 137.565 43.6904 118.204 43.7584 96.7597V58.3308C43.7584 50.2299 50.3258 43.6629 58.4266 43.6629H96.3654C110.507 43.551 124.102 49.1802 134.103 59.1797L171.595 96.6722L134.129 134.173Z" fill="url(#paint0_linear)"/>
<path d="M121.579 109.52V83.8247C121.579 81.3483 122.9 79.0601 125.045 77.8219C127.189 76.5838 129.831 76.5838 131.976 77.8219C134.121 79.0601 135.442 81.3483 135.442 83.8247V109.52C135.442 113.348 132.338 116.451 128.51 116.451C124.682 116.451 121.579 113.348 121.579 109.52ZM67.0557 109.52V83.8247C67.0557 79.9966 70.1589 76.8933 73.987 76.8933C77.8151 76.8933 80.9184 79.9966 80.9184 83.8247V109.52C80.9184 113.348 77.8151 116.451 73.987 116.451C70.1589 116.451 67.0557 113.348 67.0557 109.52Z" fill="#4CC9E9"/>
<path d="M94.3176 120.757V72.6225C94.3176 68.7944 97.4209 65.6912 101.249 65.6912C105.077 65.6912 108.18 68.7944 108.18 72.6225V120.757C108.18 123.233 106.859 125.522 104.715 126.76C102.57 127.998 99.9279 127.998 97.7833 126.76C95.6387 125.522 94.3176 123.233 94.3176 120.757Z" fill="#3281AA"/>
<path d="M289 103.507V89.837C288.934 88.4762 289.622 87.1894 290.79 86.4892C291.959 85.7889 293.418 85.7889 294.587 86.4892C295.756 87.1894 296.444 88.4762 296.378 89.837V103.507C296.444 104.868 295.756 106.155 294.587 106.855C293.418 107.555 291.959 107.555 290.79 106.855C289.622 106.155 288.934 104.868 289 103.507ZM259.988 103.507V89.837C259.921 88.4762 260.61 87.1894 261.778 86.4892C262.947 85.7889 264.406 85.7889 265.575 86.4892C266.744 87.1894 267.432 88.4762 267.366 89.837V103.507C267.432 104.868 266.744 106.155 265.575 106.855C264.406 107.555 262.947 107.555 261.778 106.855C260.61 106.155 259.921 104.868 259.988 103.507Z" fill="#4CC9E9"/>
<path d="M274.499 109.485V83.8508C274.594 81.8833 276.218 80.3373 278.187 80.3373C280.157 80.3373 281.78 81.8833 281.876 83.8508V109.485C281.943 110.845 281.254 112.132 280.086 112.832C278.917 113.533 277.458 113.533 276.289 112.832C275.12 112.132 274.432 110.845 274.499 109.485Z" fill="#3281AA"/>
<path d="M175.131 154.963L202.515 127.579L171.61 96.6745L144.226 124.058L175.131 154.963Z" fill="url(#paint1_linear)"/>
<path d="M324.269 37.029C294.111 13.5219 250.755 17.5214 223.721 44.5643L206.314 61.9715L237.216 92.8739L255.131 74.9591C266.359 63.7306 284.344 61.7177 297.043 71.2396C305.083 77.2209 309.821 86.6515 309.821 96.6722C309.821 106.693 305.083 116.123 297.043 122.105C284.344 131.627 266.359 129.605 255.131 118.385L234.459 97.7136L233.426 96.6722L202.515 65.7698L201.474 64.7283L165.032 28.2773C146.899 10.1227 122.278 -0.0541105 96.6192 0.000216397H24.5836C11.0042 0.0197432 0.00481365 11.0309 0 24.6103V99.8753L0.0700139 99.7878C0.891274 127.268 13.4047 153.091 34.4644 170.764C73.0945 203.356 130.733 199.391 166.502 163.649L202.55 127.601L223.756 148.806C250.79 175.84 294.137 179.849 324.296 156.35C342.751 142.057 353.551 120.026 353.546 96.6832C353.54 73.3403 342.731 51.3143 324.269 37.029ZM134.129 134.173C119.019 149.391 96.2128 153.971 76.3989 145.768C56.585 137.565 43.6904 118.204 43.7584 96.7597V58.3308C43.7584 50.2299 50.3258 43.6629 58.4266 43.6629H96.3654C110.507 43.551 124.102 49.1802 134.103 59.1797L171.595 96.6722L134.129 134.173Z" fill="url(#paint2_linear)"/>
<path d="M121.579 109.52V83.8247C121.579 81.3483 122.9 79.0601 125.045 77.8219C127.189 76.5838 129.831 76.5838 131.976 77.8219C134.121 79.0601 135.442 81.3483 135.442 83.8247V109.52C135.442 113.348 132.338 116.451 128.51 116.451C124.682 116.451 121.579 113.348 121.579 109.52ZM67.0557 109.52V83.8247C67.0557 79.9966 70.1589 76.8933 73.987 76.8933C77.8151 76.8933 80.9184 79.9966 80.9184 83.8247V109.52C80.9184 113.348 77.8151 116.451 73.987 116.451C70.1589 116.451 67.0557 113.348 67.0557 109.52Z" fill="#4CC9E9"/>
<path d="M94.3176 120.757V72.6225C94.3176 68.7944 97.4209 65.6912 101.249 65.6912C105.077 65.6912 108.18 68.7944 108.18 72.6225V120.757C108.18 123.233 106.859 125.522 104.715 126.76C102.57 127.998 99.9279 127.998 97.7833 126.76C95.6387 125.522 94.3176 123.233 94.3176 120.757Z" fill="#3281AA"/>
<path d="M289 103.507V89.837C288.934 88.4762 289.622 87.1894 290.79 86.4892C291.959 85.7889 293.418 85.7889 294.587 86.4892C295.756 87.1894 296.444 88.4762 296.378 89.837V103.507C296.444 104.868 295.756 106.155 294.587 106.855C293.418 107.555 291.959 107.555 290.79 106.855C289.622 106.155 288.934 104.868 289 103.507ZM259.988 103.507V89.837C259.921 88.4762 260.61 87.1894 261.778 86.4892C262.947 85.7889 264.406 85.7889 265.575 86.4892C266.744 87.1894 267.432 88.4762 267.366 89.837V103.507C267.432 104.868 266.744 106.155 265.575 106.855C264.406 107.555 262.947 107.555 261.778 106.855C260.61 106.155 259.921 104.868 259.988 103.507Z" fill="#4CC9E9"/>
<path d="M274.499 109.485V83.8508C274.594 81.8833 276.218 80.3373 278.187 80.3373C280.157 80.3373 281.78 81.8833 281.876 83.8508V109.485C281.943 110.845 281.254 112.132 280.086 112.832C278.917 113.533 277.458 113.533 276.289 112.832C275.12 112.132 274.432 110.845 274.499 109.485Z" fill="#3281AA"/>
<path d="M175.131 154.963L202.515 127.579L171.61 96.6745L144.226 124.058L175.131 154.963Z" fill="url(#paint3_linear)"/>
<defs>
<linearGradient id="paint0_linear" x1="327.613" y1="76.3045" x2="53.3813" y2="167.535" gradientUnits="userSpaceOnUse">
<stop stop-color="#4CC9E9"/>
<stop offset="1" stop-color="#3F8AC0"/>
</linearGradient>
<linearGradient id="paint1_linear" x1="187.062" y1="112.127" x2="159.678" y2="139.511" gradientUnits="userSpaceOnUse">
<stop stop-color="#2F6A94"/>
<stop offset="1" stop-color="#44A2CF" stop-opacity="0"/>
</linearGradient>
<linearGradient id="paint2_linear" x1="327.613" y1="76.3045" x2="53.3813" y2="167.535" gradientUnits="userSpaceOnUse">
<stop stop-color="#4CC9E9"/>
<stop offset="1" stop-color="#3F8AC0"/>
</linearGradient>
<linearGradient id="paint3_linear" x1="187.062" y1="112.127" x2="159.678" y2="139.511" gradientUnits="userSpaceOnUse">
<stop stop-color="#2F6A94"/>
<stop offset="1" stop-color="#44A2CF" stop-opacity="0"/>
</linearGradient>
</defs>
</svg>
